<svg width="28" height="28" viewBox="0 0 28 28" fill="none" xmlns="http://www.w3.org/2000/svg">
<path opacity="0.1" d="M14.0421 0.0440674C6.53063 0.0440674 0.441406 6.13329 0.441406 13.6447C0.441406 21.1562 6.53063 27.2454 14.0421 27.2454C21.5535 27.2454 27.6427 21.1562 27.6427 13.6447C27.634 6.13691 21.5499 0.0528112 14.0421 0.0440674Z" fill="white"/>
<path d="M21.893 9.33802L14.135 19.8661C13.9499 20.1115 13.6741 20.2724 13.3693 20.3125C13.0645 20.3525 12.7564 20.2685 12.5142 20.0791L6.97422 15.6499C6.48535 15.2586 6.40619 14.5452 6.79741 14.0563C7.18863 13.5674 7.90209 13.4883 8.39096 13.8795L13.0106 17.5755L20.0683 7.99723C20.2997 7.64994 20.7032 7.45794 21.1187 7.49744C21.5341 7.53695 21.8943 7.80157 22.0561 8.18624C22.2179 8.57092 22.1553 9.0134 21.893 9.33802Z" fill="white"/>
</svg>
