<svg width="33" height="36" viewBox="0 0 33 36" fill="none" xmlns="http://www.w3.org/2000/svg">
<g id="Google Play logo">
<path id="Vector" d="M15.3894 17.2095L0.798828 32.6957C0.799376 32.6989 0.800473 32.7016 0.801021 32.7048C1.24847 34.3863 2.78434 35.6245 4.60718 35.6245C5.33586 35.6245 6.01999 35.4275 6.60668 35.0817L6.65327 35.0544L23.0768 25.5774L15.3894 17.2095Z" fill="#EA4335"/>
<path id="Vector_2" d="M30.1493 14.5726L30.1353 14.563L23.0449 10.4526L15.0566 17.5608L23.0727 25.5758L30.1257 21.5062C31.3623 20.8387 32.2017 19.5351 32.2017 18.0319C32.2017 16.5394 31.3735 15.2423 30.1493 14.5726Z" fill="#FBBC04"/>
<path id="Vector_3" d="M0.797874 3.30371C0.710165 3.62714 0.664062 3.96592 0.664062 4.31771V31.6824C0.664062 32.0335 0.709616 32.3735 0.798422 32.6957L15.8911 17.6058L0.797874 3.30371Z" fill="#4285F4"/>
<path id="Vector_4" d="M15.4975 17.9998L23.0495 10.45L6.64464 0.938753C6.04835 0.581614 5.35244 0.375498 4.60773 0.375498C2.78489 0.375498 1.24697 1.6159 0.799376 3.2995C0.798828 3.30114 0.798828 3.30224 0.798828 3.30375L15.4975 17.9998Z" fill="#34A853"/>
</g>
</svg>
