<svg width="24" height="26" viewBox="0 0 24 26" fill="none" xmlns="http://www.w3.org/2000/svg">
<g id="Google Play logo">
<path id="Subtract" fill-rule="evenodd" clip-rule="evenodd" d="M16.425 7.39757L5.23422 0.907636C4.8116 0.654509 4.31836 0.508423 3.79054 0.508423C2.70133 0.508423 1.74348 1.16844 1.28428 2.09104L1.36793 2.17467L11.5085 12.3131L16.425 7.39757ZM0.998954 3.17929C0.997054 3.2202 0.996094 3.26128 0.996094 3.30251V22.6976C0.996094 22.7388 0.997053 22.7798 0.998951 22.8207L10.8216 12.9999L0.998954 3.17929ZM1.2843 23.9089C1.74357 24.8315 2.70157 25.4916 3.79054 25.4916C4.30699 25.4916 4.79188 25.352 5.2077 25.1068L5.24073 25.0875L16.4443 18.6213L11.5085 13.6866L1.36793 23.8253L1.2843 23.9089ZM17.3153 18.1186L21.8781 15.4851C22.7545 15.0119 23.3495 14.088 23.3495 13.0226C23.3495 11.9648 22.7625 11.0454 21.8948 10.5708L21.8849 10.564L17.2945 7.90181L12.1954 12.9999L17.3153 18.1186Z" fill="#EBE4E4"/>
</g>
</svg>
