<svg xmlns="http://www.w3.org/2000/svg" width="71" height="66" viewBox="0 0 71 66" fill="none">
  <path d="M48.5333 1.76127C44 3.0946 38 8.16127 34.5333 13.6279L32.4 16.8279L28.1333 13.2279C21.6 7.76126 13.2 8.16127 7.33333 14.0279C3.2 18.1613 0 25.7613 0 31.7613C0 37.0946 4 47.8946 8 53.4946C13.0667 60.4279 23.3333 65.6279 32 65.6279C44 65.6279 56.1333 57.0946 62.8 44.0279C67.0667 35.6279 70.6667 24.4279 70.6667 19.3613C70.6667 6.42793 60.4 -1.7054 48.5333 1.76127ZM61.3333 10.5613C63.7333 13.6279 64.1333 15.4946 63.6 21.0946C62.2667 34.0279 53.4667 50.0279 44.4 56.2946C24.2667 70.1613 -1.46667 42.8279 10.1333 20.0279C13.8667 12.8279 21.6 13.4946 28.1333 21.6279C33.8667 28.6946 36.1333 28.4279 39.0667 20.4279C43.4667 7.8946 55.2 2.82793 61.3333 10.5613Z" fill="#EE0047"/>
</svg>