<svg width="24" height="25" viewBox="0 0 24 25" fill="none" xmlns="http://www.w3.org/2000/svg">
<g id="bxs:phone-call">
<path id="Vector" d="M20.0002 11.499H22.0002C22.0002 6.369 18.1272 2.5 12.9902 2.5V4.5C17.0522 4.5 20.0002 7.443 20.0002 11.499Z" fill="white"/>
<path id="Vector_2" d="M13.0003 8.50024C15.1033 8.50024 16.0003 9.39724 16.0003 11.5002H18.0003C18.0003 8.27524 16.2253 6.50024 13.0003 6.50024V8.50024ZM16.4223 13.9432C16.2301 13.7686 15.9776 13.6754 15.7181 13.6835C15.4585 13.6915 15.2123 13.8001 15.0313 13.9862L12.6383 16.4472C12.0623 16.3372 10.9043 15.9762 9.71228 14.7872C8.52028 13.5942 8.15928 12.4332 8.05228 11.8612L10.5113 9.46724C10.6977 9.28637 10.8064 9.04006 10.8144 8.78045C10.8225 8.52083 10.7292 8.26828 10.5543 8.07624L6.85928 4.01324C6.68432 3.8206 6.44116 3.70374 6.18143 3.6875C5.92171 3.67125 5.66588 3.7569 5.46828 3.92624L3.29828 5.78724C3.12539 5.96075 3.0222 6.19169 3.00828 6.43624C2.99328 6.68624 2.70728 12.6082 7.29928 17.2022C11.3053 21.2072 16.3233 21.5002 17.7053 21.5002C17.9073 21.5002 18.0313 21.4942 18.0643 21.4922C18.3088 21.4786 18.5396 21.3749 18.7123 21.2012L20.5723 19.0302C20.7417 18.8328 20.8276 18.577 20.8115 18.3173C20.7954 18.0576 20.6788 17.8143 20.4863 17.6392L16.4223 13.9432Z" fill="white"/>
</g>
</svg>
